<mxfile host="Electron" modified="2024-03-20T19:42:31.090Z" agent="Mozilla/5.0 (Windows NT 10.0; Win64; x64) AppleWebKit/537.36 (KHTML, like Gecko) draw.io/23.1.5 Chrome/120.0.6099.109 Electron/28.1.0 Safari/537.36" etag="znk67BIu-OWhRno-wHa-" version="23.1.5" type="device">
  <diagram name="Page-1" id="b5b7bab2-c9e2-2cf4-8b2a-24fd1a2a6d21">
    <mxGraphModel dx="1863" dy="606" grid="1" gridSize="10" guides="1" tooltips="1" connect="1" arrows="1" fold="1" page="1" pageScale="1" pageWidth="827" pageHeight="1169" background="none" math="0" shadow="0">
      <root>
        <mxCell id="0" />
        <mxCell id="1" parent="0" />
        <mxCell id="r8nwBpBsQ_iBFKIkCzxn-3" value="" style="shape=folder;fontStyle=1;spacingTop=10;tabWidth=123;tabHeight=24;tabPosition=left;html=1;rounded=0;shadow=0;comic=0;labelBackgroundColor=none;strokeColor=#000000;strokeWidth=1;fillColor=#ffffff;fontFamily=Verdana;fontSize=10;fontColor=#000000;align=center;" vertex="1" parent="1">
          <mxGeometry x="750" y="230" width="515" height="240" as="geometry" />
        </mxCell>
        <mxCell id="r8nwBpBsQ_iBFKIkCzxn-4" value="" style="shape=folder;fontStyle=1;spacingTop=10;tabWidth=123;tabHeight=24;tabPosition=left;html=1;rounded=0;shadow=0;comic=0;labelBackgroundColor=none;strokeColor=#000000;strokeWidth=1;fillColor=#ffffff;fontFamily=Verdana;fontSize=10;fontColor=#000000;align=center;" vertex="1" parent="1">
          <mxGeometry x="200" y="230" width="515" height="240" as="geometry" />
        </mxCell>
        <mxCell id="r8nwBpBsQ_iBFKIkCzxn-5" value="" style="shape=folder;fontStyle=1;spacingTop=10;tabWidth=123;tabHeight=24;tabPosition=left;html=1;rounded=0;shadow=0;comic=0;labelBackgroundColor=none;strokeColor=#000000;strokeWidth=1;fillColor=#ffffff;fontFamily=Verdana;fontSize=10;fontColor=#000000;align=center;" vertex="1" parent="1">
          <mxGeometry x="478" y="810" width="515" height="240" as="geometry" />
        </mxCell>
        <mxCell id="r8nwBpBsQ_iBFKIkCzxn-11" value="UserControllerREST" style="swimlane;fontStyle=0;childLayout=stackLayout;horizontal=1;startSize=22;fillColor=none;horizontalStack=0;resizeParent=1;resizeParentMax=0;resizeLast=0;collapsible=1;marginBottom=0;whiteSpace=wrap;html=1;" vertex="1" parent="1">
          <mxGeometry x="210" y="300" width="140" height="52" as="geometry" />
        </mxCell>
        <mxCell id="r8nwBpBsQ_iBFKIkCzxn-15" value="" style="shape=folder;fontStyle=1;spacingTop=10;tabWidth=123;tabHeight=24;tabPosition=left;html=1;rounded=0;shadow=0;comic=0;labelBackgroundColor=none;strokeColor=#000000;strokeWidth=1;fillColor=#ffffff;fontFamily=Verdana;fontSize=10;fontColor=#000000;align=center;" vertex="1" parent="1">
          <mxGeometry x="478" y="520" width="515" height="240" as="geometry" />
        </mxCell>
        <mxCell id="r8nwBpBsQ_iBFKIkCzxn-17" value="UserControllerREST" style="swimlane;fontStyle=0;childLayout=stackLayout;horizontal=1;startSize=22;fillColor=none;horizontalStack=0;resizeParent=1;resizeParentMax=0;resizeLast=0;collapsible=1;marginBottom=0;whiteSpace=wrap;html=1;" vertex="1" parent="1">
          <mxGeometry x="370" y="300" width="140" height="52" as="geometry" />
        </mxCell>
        <mxCell id="r8nwBpBsQ_iBFKIkCzxn-18" value="UserControllerWEB" style="swimlane;fontStyle=0;childLayout=stackLayout;horizontal=1;startSize=22;fillColor=none;horizontalStack=0;resizeParent=1;resizeParentMax=0;resizeLast=0;collapsible=1;marginBottom=0;whiteSpace=wrap;html=1;" vertex="1" parent="1">
          <mxGeometry x="760" y="300" width="140" height="52" as="geometry" />
        </mxCell>
        <mxCell id="r8nwBpBsQ_iBFKIkCzxn-19" value="TaskControllerWEB" style="swimlane;fontStyle=0;childLayout=stackLayout;horizontal=1;startSize=22;fillColor=none;horizontalStack=0;resizeParent=1;resizeParentMax=0;resizeLast=0;collapsible=1;marginBottom=0;whiteSpace=wrap;html=1;" vertex="1" parent="1">
          <mxGeometry x="920" y="300" width="140" height="52" as="geometry" />
        </mxCell>
        <mxCell id="r8nwBpBsQ_iBFKIkCzxn-21" value="ReportController" style="swimlane;fontStyle=0;childLayout=stackLayout;horizontal=1;startSize=22;fillColor=none;horizontalStack=0;resizeParent=1;resizeParentMax=0;resizeLast=0;collapsible=1;marginBottom=0;whiteSpace=wrap;html=1;" vertex="1" parent="1">
          <mxGeometry x="1090" y="300" width="140" height="50" as="geometry" />
        </mxCell>
        <mxCell id="r8nwBpBsQ_iBFKIkCzxn-22" value="ErrorController" style="swimlane;fontStyle=0;childLayout=stackLayout;horizontal=1;startSize=22;fillColor=none;horizontalStack=0;resizeParent=1;resizeParentMax=0;resizeLast=0;collapsible=1;marginBottom=0;whiteSpace=wrap;html=1;" vertex="1" parent="1">
          <mxGeometry x="760" y="374" width="140" height="52" as="geometry" />
        </mxCell>
        <mxCell id="r8nwBpBsQ_iBFKIkCzxn-23" value="services" style="text;align=center;fontStyle=1;verticalAlign=middle;spacingLeft=3;spacingRight=3;strokeColor=none;rotatable=0;points=[[0,0.5],[1,0.5]];portConstraint=eastwest;html=1;" vertex="1" parent="1">
          <mxGeometry x="470" y="520" width="80" height="26" as="geometry" />
        </mxCell>
        <mxCell id="r8nwBpBsQ_iBFKIkCzxn-24" value="controllersREST" style="text;align=center;fontStyle=1;verticalAlign=middle;spacingLeft=3;spacingRight=3;strokeColor=none;rotatable=0;points=[[0,0.5],[1,0.5]];portConstraint=eastwest;html=1;" vertex="1" parent="1">
          <mxGeometry x="210" y="230" width="80" height="26" as="geometry" />
        </mxCell>
        <mxCell id="r8nwBpBsQ_iBFKIkCzxn-25" value="controllersWEB" style="text;align=center;fontStyle=1;verticalAlign=middle;spacingLeft=3;spacingRight=3;strokeColor=none;rotatable=0;points=[[0,0.5],[1,0.5]];portConstraint=eastwest;html=1;" vertex="1" parent="1">
          <mxGeometry x="760" y="230" width="80" height="26" as="geometry" />
        </mxCell>
        <mxCell id="r8nwBpBsQ_iBFKIkCzxn-26" value="repositories" style="text;align=center;fontStyle=1;verticalAlign=middle;spacingLeft=3;spacingRight=3;strokeColor=none;rotatable=0;points=[[0,0.5],[1,0.5]];portConstraint=eastwest;html=1;" vertex="1" parent="1">
          <mxGeometry x="478" y="810" width="80" height="26" as="geometry" />
        </mxCell>
        <mxCell id="r8nwBpBsQ_iBFKIkCzxn-27" value="" style="shape=folder;fontStyle=1;spacingTop=10;tabWidth=40;tabHeight=14;tabPosition=left;html=1;whiteSpace=wrap;" vertex="1" parent="1">
          <mxGeometry x="680" y="580" width="140" height="160" as="geometry" />
        </mxCell>
        <mxCell id="r8nwBpBsQ_iBFKIkCzxn-29" value="" style="shape=folder;fontStyle=1;spacingTop=10;tabWidth=40;tabHeight=14;tabPosition=left;html=1;whiteSpace=wrap;" vertex="1" parent="1">
          <mxGeometry x="840" y="580" width="140" height="160" as="geometry" />
        </mxCell>
        <mxCell id="r8nwBpBsQ_iBFKIkCzxn-30" value="iTaskService" style="swimlane;fontStyle=0;childLayout=stackLayout;horizontal=1;startSize=22;fillColor=none;horizontalStack=0;resizeParent=1;resizeParentMax=0;resizeLast=0;collapsible=1;marginBottom=0;whiteSpace=wrap;html=1;" vertex="1" parent="1">
          <mxGeometry x="697.5" y="611" width="105" height="52" as="geometry" />
        </mxCell>
        <mxCell id="r8nwBpBsQ_iBFKIkCzxn-31" value="iUserService" style="swimlane;fontStyle=0;childLayout=stackLayout;horizontal=1;startSize=22;fillColor=none;horizontalStack=0;resizeParent=1;resizeParentMax=0;resizeLast=0;collapsible=1;marginBottom=0;whiteSpace=wrap;html=1;" vertex="1" parent="1">
          <mxGeometry x="697.5" y="680" width="105" height="52" as="geometry" />
        </mxCell>
        <mxCell id="r8nwBpBsQ_iBFKIkCzxn-32" value="ReportService" style="swimlane;fontStyle=0;childLayout=stackLayout;horizontal=1;startSize=22;fillColor=none;horizontalStack=0;resizeParent=1;resizeParentMax=0;resizeLast=0;collapsible=1;marginBottom=0;whiteSpace=wrap;html=1;" vertex="1" parent="1">
          <mxGeometry x="860" y="638" width="100" height="52" as="geometry" />
        </mxCell>
        <mxCell id="r8nwBpBsQ_iBFKIkCzxn-33" value="FileGateway" style="swimlane;fontStyle=0;childLayout=stackLayout;horizontal=1;startSize=22;fillColor=none;horizontalStack=0;resizeParent=1;resizeParentMax=0;resizeLast=0;collapsible=1;marginBottom=0;whiteSpace=wrap;html=1;" vertex="1" parent="1">
          <mxGeometry x="500" y="559" width="110" height="52" as="geometry" />
        </mxCell>
        <mxCell id="r8nwBpBsQ_iBFKIkCzxn-34" value="«interface»&lt;br&gt;&lt;b&gt;TaskServiceApi&lt;/b&gt;" style="html=1;whiteSpace=wrap;" vertex="1" parent="1">
          <mxGeometry x="500" y="630" width="110" height="50" as="geometry" />
        </mxCell>
        <mxCell id="r8nwBpBsQ_iBFKIkCzxn-35" value="«interface»&lt;br&gt;&lt;b&gt;UserServiceApi&lt;/b&gt;" style="html=1;whiteSpace=wrap;" vertex="1" parent="1">
          <mxGeometry x="500" y="690" width="110" height="50" as="geometry" />
        </mxCell>
        <mxCell id="r8nwBpBsQ_iBFKIkCzxn-36" value="impl" style="text;align=center;fontStyle=1;verticalAlign=middle;spacingLeft=3;spacingRight=3;strokeColor=none;rotatable=0;points=[[0,0.5],[1,0.5]];portConstraint=eastwest;html=1;" vertex="1" parent="1">
          <mxGeometry x="660" y="574" width="80" height="26" as="geometry" />
        </mxCell>
        <mxCell id="r8nwBpBsQ_iBFKIkCzxn-38" value="servicesReports" style="text;align=center;fontStyle=1;verticalAlign=middle;spacingLeft=3;spacingRight=3;strokeColor=none;rotatable=0;points=[[0,0.5],[1,0.5]];portConstraint=eastwest;html=1;" vertex="1" parent="1">
          <mxGeometry x="870" y="600" width="80" height="26" as="geometry" />
        </mxCell>
        <mxCell id="r8nwBpBsQ_iBFKIkCzxn-41" value="UserRepository" style="swimlane;fontStyle=0;childLayout=stackLayout;horizontal=1;startSize=22;fillColor=none;horizontalStack=0;resizeParent=1;resizeParentMax=0;resizeLast=0;collapsible=1;marginBottom=0;whiteSpace=wrap;html=1;" vertex="1" parent="1">
          <mxGeometry x="662.5" y="870" width="140" height="52" as="geometry" />
        </mxCell>
        <mxCell id="r8nwBpBsQ_iBFKIkCzxn-42" value="TeamRepository" style="swimlane;fontStyle=0;childLayout=stackLayout;horizontal=1;startSize=22;fillColor=none;horizontalStack=0;resizeParent=1;resizeParentMax=0;resizeLast=0;collapsible=1;marginBottom=0;whiteSpace=wrap;html=1;" vertex="1" parent="1">
          <mxGeometry x="827" y="870" width="140" height="52" as="geometry" />
        </mxCell>
        <mxCell id="r8nwBpBsQ_iBFKIkCzxn-43" value="TaskRepository" style="swimlane;fontStyle=0;childLayout=stackLayout;horizontal=1;startSize=20;fillColor=none;horizontalStack=0;resizeParent=1;resizeParentMax=0;resizeLast=0;collapsible=1;marginBottom=0;whiteSpace=wrap;html=1;" vertex="1" parent="1">
          <mxGeometry x="500" y="870" width="140" height="52" as="geometry" />
        </mxCell>
        <mxCell id="r8nwBpBsQ_iBFKIkCzxn-44" value="" style="shape=folder;fontStyle=1;spacingTop=10;tabWidth=123;tabHeight=24;tabPosition=left;html=1;rounded=0;shadow=0;comic=0;labelBackgroundColor=none;strokeColor=#000000;strokeWidth=1;fillColor=#ffffff;fontFamily=Verdana;fontSize=10;fontColor=#000000;align=center;" vertex="1" parent="1">
          <mxGeometry x="182.5" y="1100" width="515" height="240" as="geometry" />
        </mxCell>
        <mxCell id="r8nwBpBsQ_iBFKIkCzxn-45" value="" style="shape=datastore;whiteSpace=wrap;html=1;" vertex="1" parent="1">
          <mxGeometry x="910" y="1150" width="320" height="165" as="geometry" />
        </mxCell>
        <mxCell id="r8nwBpBsQ_iBFKIkCzxn-46" value="domain" style="text;align=center;fontStyle=1;verticalAlign=middle;spacingLeft=3;spacingRight=3;strokeColor=none;rotatable=0;points=[[0,0.5],[1,0.5]];portConstraint=eastwest;html=1;" vertex="1" parent="1">
          <mxGeometry x="182.5" y="1100" width="80" height="26" as="geometry" />
        </mxCell>
        <mxCell id="r8nwBpBsQ_iBFKIkCzxn-48" value="database" style="text;align=center;fontStyle=1;verticalAlign=middle;spacingLeft=3;spacingRight=3;strokeColor=none;rotatable=0;points=[[0,0.5],[1,0.5]];portConstraint=eastwest;html=1;" vertex="1" parent="1">
          <mxGeometry x="1030" y="1240" width="80" height="26" as="geometry" />
        </mxCell>
        <mxCell id="r8nwBpBsQ_iBFKIkCzxn-49" value="User" style="swimlane;fontStyle=0;childLayout=stackLayout;horizontal=1;startSize=22;fillColor=none;horizontalStack=0;resizeParent=1;resizeParentMax=0;resizeLast=0;collapsible=1;marginBottom=0;whiteSpace=wrap;html=1;" vertex="1" parent="1">
          <mxGeometry x="370" y="1150" width="140" height="52" as="geometry" />
        </mxCell>
        <mxCell id="r8nwBpBsQ_iBFKIkCzxn-50" value="Team" style="swimlane;fontStyle=0;childLayout=stackLayout;horizontal=1;startSize=22;fillColor=none;horizontalStack=0;resizeParent=1;resizeParentMax=0;resizeLast=0;collapsible=1;marginBottom=0;whiteSpace=wrap;html=1;" vertex="1" parent="1">
          <mxGeometry x="530" y="1150" width="140" height="52" as="geometry" />
        </mxCell>
        <mxCell id="r8nwBpBsQ_iBFKIkCzxn-51" value="Task" style="swimlane;fontStyle=0;childLayout=stackLayout;horizontal=1;startSize=22;fillColor=none;horizontalStack=0;resizeParent=1;resizeParentMax=0;resizeLast=0;collapsible=1;marginBottom=0;whiteSpace=wrap;html=1;" vertex="1" parent="1">
          <mxGeometry x="210" y="1150" width="140" height="52" as="geometry" />
        </mxCell>
        <mxCell id="r8nwBpBsQ_iBFKIkCzxn-53" value="TaskStatus" style="swimlane;fontStyle=0;childLayout=stackLayout;horizontal=1;startSize=22;fillColor=none;horizontalStack=0;resizeParent=1;resizeParentMax=0;resizeLast=0;collapsible=1;marginBottom=0;whiteSpace=wrap;html=1;" vertex="1" parent="1">
          <mxGeometry x="210" y="1227" width="140" height="52" as="geometry" />
        </mxCell>
        <mxCell id="r8nwBpBsQ_iBFKIkCzxn-54" value="TeamMember" style="swimlane;fontStyle=0;childLayout=stackLayout;horizontal=1;startSize=22;fillColor=none;horizontalStack=0;resizeParent=1;resizeParentMax=0;resizeLast=0;collapsible=1;marginBottom=0;whiteSpace=wrap;html=1;" vertex="1" parent="1">
          <mxGeometry x="530" y="1227" width="140" height="52" as="geometry" />
        </mxCell>
        <mxCell id="r8nwBpBsQ_iBFKIkCzxn-57" value="" style="shape=folder;fontStyle=1;spacingTop=10;tabWidth=123;tabHeight=24;tabPosition=left;html=1;rounded=0;shadow=0;comic=0;labelBackgroundColor=none;strokeColor=#000000;strokeWidth=1;fillColor=#ffffff;fontFamily=Verdana;fontSize=10;fontColor=#000000;align=center;" vertex="1" parent="1">
          <mxGeometry x="-47.5" y="490" width="230" height="256" as="geometry" />
        </mxCell>
        <mxCell id="r8nwBpBsQ_iBFKIkCzxn-58" value="&lt;font style=&quot;font-size: 10px;&quot;&gt;TaskNotFoundException&lt;/font&gt;" style="swimlane;fontStyle=0;childLayout=stackLayout;horizontal=1;startSize=22;fillColor=none;horizontalStack=0;resizeParent=1;resizeParentMax=0;resizeLast=0;collapsible=1;marginBottom=0;whiteSpace=wrap;html=1;" vertex="1" parent="1">
          <mxGeometry x="-10" y="540" width="140" height="52" as="geometry" />
        </mxCell>
        <mxCell id="r8nwBpBsQ_iBFKIkCzxn-59" value="&lt;font style=&quot;font-size: 10px;&quot;&gt;UserUpdateException&lt;/font&gt;" style="swimlane;fontStyle=0;childLayout=stackLayout;horizontal=1;startSize=22;fillColor=none;horizontalStack=0;resizeParent=1;resizeParentMax=0;resizeLast=0;collapsible=1;marginBottom=0;whiteSpace=wrap;html=1;" vertex="1" parent="1">
          <mxGeometry x="-10" y="680" width="140" height="52" as="geometry" />
        </mxCell>
        <mxCell id="r8nwBpBsQ_iBFKIkCzxn-62" value="&lt;font style=&quot;font-size: 10px;&quot;&gt;UserNotFoundException&lt;/font&gt;" style="swimlane;fontStyle=0;childLayout=stackLayout;horizontal=1;startSize=22;fillColor=none;horizontalStack=0;resizeParent=1;resizeParentMax=0;resizeLast=0;collapsible=1;marginBottom=0;whiteSpace=wrap;html=1;" vertex="1" parent="1">
          <mxGeometry x="-10" y="611" width="140" height="52" as="geometry" />
        </mxCell>
        <mxCell id="r8nwBpBsQ_iBFKIkCzxn-63" value="exception" style="text;align=center;fontStyle=1;verticalAlign=middle;spacingLeft=3;spacingRight=3;strokeColor=none;rotatable=0;points=[[0,0.5],[1,0.5]];portConstraint=eastwest;html=1;" vertex="1" parent="1">
          <mxGeometry x="-50" y="490" width="80" height="26" as="geometry" />
        </mxCell>
        <mxCell id="r8nwBpBsQ_iBFKIkCzxn-69" value="" style="shape=folder;fontStyle=1;spacingTop=10;tabWidth=123;tabHeight=24;tabPosition=left;html=1;rounded=0;shadow=0;comic=0;labelBackgroundColor=none;strokeColor=#000000;strokeWidth=1;fillColor=#ffffff;fontFamily=Verdana;fontSize=10;fontColor=#000000;align=center;" vertex="1" parent="1">
          <mxGeometry x="-50" y="880" width="230" height="130" as="geometry" />
        </mxCell>
        <mxCell id="r8nwBpBsQ_iBFKIkCzxn-70" value="configuration" style="text;align=center;fontStyle=1;verticalAlign=middle;spacingLeft=3;spacingRight=3;strokeColor=none;rotatable=0;points=[[0,0.5],[1,0.5]];portConstraint=eastwest;html=1;" vertex="1" parent="1">
          <mxGeometry x="-47.5" y="880" width="80" height="26" as="geometry" />
        </mxCell>
        <mxCell id="r8nwBpBsQ_iBFKIkCzxn-71" value="&lt;font style=&quot;font-size: 12px;&quot;&gt;IntegrationConfig&lt;/font&gt;" style="swimlane;fontStyle=0;childLayout=stackLayout;horizontal=1;startSize=22;fillColor=none;horizontalStack=0;resizeParent=1;resizeParentMax=0;resizeLast=0;collapsible=1;marginBottom=0;whiteSpace=wrap;html=1;" vertex="1" parent="1">
          <mxGeometry x="-10" y="930" width="140" height="52" as="geometry" />
        </mxCell>
        <mxCell id="r8nwBpBsQ_iBFKIkCzxn-77" value="" style="endArrow=classic;html=1;rounded=0;exitX=0.851;exitY=1.002;exitDx=0;exitDy=0;exitPerimeter=0;entryX=0.311;entryY=0.099;entryDx=0;entryDy=0;entryPerimeter=0;" edge="1" parent="1" source="r8nwBpBsQ_iBFKIkCzxn-4" target="r8nwBpBsQ_iBFKIkCzxn-15">
          <mxGeometry width="50" height="50" relative="1" as="geometry">
            <mxPoint x="620" y="500" as="sourcePoint" />
            <mxPoint x="600" y="490" as="targetPoint" />
          </mxGeometry>
        </mxCell>
        <mxCell id="r8nwBpBsQ_iBFKIkCzxn-79" value="" style="endArrow=classic;html=1;rounded=0;entryX=0.68;entryY=0.099;entryDx=0;entryDy=0;entryPerimeter=0;exitX=0.152;exitY=0.999;exitDx=0;exitDy=0;exitPerimeter=0;" edge="1" parent="1" source="r8nwBpBsQ_iBFKIkCzxn-3" target="r8nwBpBsQ_iBFKIkCzxn-15">
          <mxGeometry width="50" height="50" relative="1" as="geometry">
            <mxPoint x="828" y="480" as="sourcePoint" />
            <mxPoint x="828.75" y="541" as="targetPoint" />
          </mxGeometry>
        </mxCell>
        <mxCell id="r8nwBpBsQ_iBFKIkCzxn-83" value="" style="endArrow=classic;html=1;rounded=0;entryX=0.546;entryY=0.095;entryDx=0;entryDy=0;entryPerimeter=0;exitX=0.546;exitY=1.005;exitDx=0;exitDy=0;exitPerimeter=0;" edge="1" parent="1" source="r8nwBpBsQ_iBFKIkCzxn-15" target="r8nwBpBsQ_iBFKIkCzxn-5">
          <mxGeometry width="50" height="50" relative="1" as="geometry">
            <mxPoint x="750" y="770" as="sourcePoint" />
            <mxPoint x="759.31" y="834" as="targetPoint" />
          </mxGeometry>
        </mxCell>
        <mxCell id="r8nwBpBsQ_iBFKIkCzxn-86" value="" style="endArrow=classic;html=1;rounded=0;entryX=0.13;entryY=0.033;entryDx=0;entryDy=0;entryPerimeter=0;exitX=0.774;exitY=1.005;exitDx=0;exitDy=0;exitPerimeter=0;" edge="1" parent="1" source="r8nwBpBsQ_iBFKIkCzxn-5" target="r8nwBpBsQ_iBFKIkCzxn-45">
          <mxGeometry width="50" height="50" relative="1" as="geometry">
            <mxPoint x="840" y="1090" as="sourcePoint" />
            <mxPoint x="890" y="1040" as="targetPoint" />
          </mxGeometry>
        </mxCell>
        <mxCell id="r8nwBpBsQ_iBFKIkCzxn-87" value="" style="endArrow=classic;html=1;rounded=0;exitX=-0.002;exitY=0.503;exitDx=0;exitDy=0;exitPerimeter=0;entryX=0.998;entryY=0.585;entryDx=0;entryDy=0;entryPerimeter=0;" edge="1" parent="1" source="r8nwBpBsQ_iBFKIkCzxn-15" target="r8nwBpBsQ_iBFKIkCzxn-57">
          <mxGeometry width="50" height="50" relative="1" as="geometry">
            <mxPoint x="430" y="660" as="sourcePoint" />
            <mxPoint x="190" y="640" as="targetPoint" />
          </mxGeometry>
        </mxCell>
        <mxCell id="r8nwBpBsQ_iBFKIkCzxn-89" value="Postman client" style="rounded=0;whiteSpace=wrap;html=1;" vertex="1" parent="1">
          <mxGeometry x="380" y="80" width="120" height="60" as="geometry" />
        </mxCell>
        <mxCell id="r8nwBpBsQ_iBFKIkCzxn-91" value="" style="endArrow=classic;startArrow=classic;html=1;rounded=0;entryX=0.5;entryY=1;entryDx=0;entryDy=0;exitX=0.467;exitY=0.101;exitDx=0;exitDy=0;exitPerimeter=0;" edge="1" parent="1" source="r8nwBpBsQ_iBFKIkCzxn-4" target="r8nwBpBsQ_iBFKIkCzxn-89">
          <mxGeometry width="50" height="50" relative="1" as="geometry">
            <mxPoint x="400" y="230" as="sourcePoint" />
            <mxPoint x="450" y="180" as="targetPoint" />
          </mxGeometry>
        </mxCell>
        <mxCell id="r8nwBpBsQ_iBFKIkCzxn-93" value="Browser" style="rounded=0;whiteSpace=wrap;html=1;" vertex="1" parent="1">
          <mxGeometry x="930" y="80" width="120" height="60" as="geometry" />
        </mxCell>
        <mxCell id="r8nwBpBsQ_iBFKIkCzxn-94" value="" style="endArrow=classic;startArrow=classic;html=1;rounded=0;exitX=0.466;exitY=0.101;exitDx=0;exitDy=0;exitPerimeter=0;entryX=0.5;entryY=1;entryDx=0;entryDy=0;" edge="1" parent="1" source="r8nwBpBsQ_iBFKIkCzxn-3" target="r8nwBpBsQ_iBFKIkCzxn-93">
          <mxGeometry width="50" height="50" relative="1" as="geometry">
            <mxPoint x="992.57" y="254" as="sourcePoint" />
            <mxPoint x="992" y="150" as="targetPoint" />
          </mxGeometry>
        </mxCell>
        <mxCell id="r8nwBpBsQ_iBFKIkCzxn-95" value="" style="endArrow=classic;startArrow=classic;html=1;rounded=0;exitX=0.236;exitY=1.001;exitDx=0;exitDy=0;exitPerimeter=0;entryX=0.81;entryY=0.103;entryDx=0;entryDy=0;entryPerimeter=0;" edge="1" parent="1" source="r8nwBpBsQ_iBFKIkCzxn-5" target="r8nwBpBsQ_iBFKIkCzxn-44">
          <mxGeometry width="50" height="50" relative="1" as="geometry">
            <mxPoint x="710" y="1030" as="sourcePoint" />
            <mxPoint x="600" y="1121" as="targetPoint" />
          </mxGeometry>
        </mxCell>
      </root>
    </mxGraphModel>
  </diagram>
</mxfile>
